<svg clip-rule="evenodd" fill-rule="evenodd" stroke-linejoin="round" stroke-miterlimit="2" viewBox="0 0 560 400" xmlns="http://www.w3.org/2000/svg"><path d="m425.9 98.4-33.7 53.9-33.3-53.9h-14.9v91h14.9v-58.6c0-1.1 0-2.2-.1-3.3s-.1-2.2-.3-3.5c.7 1.9 1.8 4 3.1 6l24.2 38.9h12l24-38.9c.6-1 1.2-1.9 1.9-2.9s1.3-2 1.9-3.1c-.1 1.2-.2 2.4-.3 3.5s-.1 2.2-.1 3.3v58.6h14.7v-91zm45.9 91 29.3-71.5c.2-.7.5-1.5.8-2.3s.6-1.7.8-2.8c.2 1.1.5 2 .8 2.8s.6 1.6.8 2.3l16 38.9h-34.3l8.9 13.3h30.8l8 19.3h15.7l-38.4-91h-16l-38.4 91zm229.3 0 37-91h-16l-26.1 68.6c-.8 2.3-1.7 5-2.5 8-.8-3-1.7-5.7-2.5-8l-26-68.6h-16.7l37 91zm141-91v91h59.3v-13.5h-44.4v-77.5zm77.4 0v91h59.9v-13.5h-45v-77.5zm-149.6 13.5h47.7v-13.5h-62.4v91h63.3v-13.5h-48.6zm-132.7 13.8c0-8.5-2.6-15.2-7.9-20s-14.1-7.3-26.5-7.3h-37.1v91h14.9v-77.5h22.8c12.2 0 18.4 5 18.4 15.1 0 10.8-6.6 16.2-19.8 16.2h-12l-8.5 13.1h20.2l25.1 33.1h18l-27.6-36.4c13.3-4.8 20-13.9 20-27.3zm174 11.3h-40.4l9.1 13.5h31.3zm-699.3-25.9 30.1 30.8c.7.7 1.4 1.1 2 1.1s1.3-.4 2-1.1l30.1-30.8c.7-.7 1.1-1.4 1.1-2 0-1-.5-1.4-1.6-1.4h-63.1c-1.1 0-1.6.5-1.6 1.4-.1.6.3 1.3 1 2zm176.1-109.5c0-1.1-.5-1.6-1.5-1.6-.6 0-1.2.3-1.8.9l-24.7 25v236l24.7 25.2c.6.6 1.2.9 1.8.9 1 0 1.5-.5 1.5-1.6zm-288 284.8c0 1.1.5 1.6 1.5 1.6.6 0 1.2-.3 1.8-.9l24.7-25.2v-236l-24.7-25c-.6-.6-1.3-.9-1.8-.9-1 0-1.5.5-1.5 1.6zm64.2-223.6h159.7l22.4-22.8c.6-.6.9-1.2.9-1.8 0-1-.5-1.5-1.6-1.5h-203.2c-1.1 0-1.6.5-1.6 1.5 0 .6.3 1.2.9 1.8zm-22.5 185.2c-.6.6-.9 1.2-.9 1.8 0 1 .5 1.4 1.6 1.4h203.1c1.1 0 1.6-.5 1.6-1.4 0-.6-.3-1.2-.9-1.8l-22.4-22.8h-159.6zm170.1-35c.6.6 1.2.9 1.8.9 1 0 1.4-.5 1.4-1.6v-136.6c0-1.1-.5-1.6-1.4-1.6-.6 0-1.2.3-1.8.9l-23.4 23.8v90.5zm-112.2-23.8v-90.4l-23.4-23.8c-.6-.6-1.2-.9-1.8-.9-1 0-1.4.6-1.4 1.6v136.6c0 1.1.5 1.6 1.4 1.6.6 0 1.2-.3 1.8-.9zm879.2-90.8v1.7h4.2v9.8h1.9v-9.8h4.2v-1.7zm23 0-4.3 6.8-4.2-6.8h-1.9v11.5h1.9v-8.2c.1.2.2.5.4.8l3.1 4.9h1.5l3-4.9c.1-.1.2-.2.2-.4s.2-.2.2-.4v8.2h1.9v-11.5z" fill-rule="nonzero" transform="matrix(.358709 0 0 .358709 100 148.346)"/></svg>